PathFileType	4	(X/Y/Z)	/Users/itak/Documents/Research/Walk-IL/dataset/trc/00557_00009.trc
DataRate	CameraRate	NumFrames	NumMarkers	Units	OrigDataRate	OrigDataStartFrame	OrigNumFrames
100.000000	100.000000	4	53	mm	100.000000	240	385
Frame#	Time	RPSI			LPSI			L3			STRN			T10			C7			CLAV			RBAK			LBAK			LSHO			LUPA			LAEL			LAOL			LWTS			LWPS			LFRA			LIFD			LHPS			LHTS			RSHO			RUPA			RAEL			RAOL			RWTS			RWPS			RFRA			RIFD			RHTS			RHPS			RBHD			LFHD			RFHD			LBHD			LHIP			RHIP			RASI			LASI			LKNE			LTHI			LANK			LTIP			LTOE			LMT1			LMT5			LHEE			RKNE			RTHI			RANK			RTIP			RTOE			RMT1			RMT5			RHEE			
		X1	Y1	Z1	X2	Y2	Z2	X3	Y3	Z3	X4	Y4	Z4	X5	Y5	Z5	X6	Y6	Z6	X7	Y7	Z7	X8	Y8	Z8	X9	Y9	Z9	X10	Y10	Z10	X11	Y11	Z11	X12	Y12	Z12	X13	Y13	Z13	X14	Y14	Z14	X15	Y15	Z15	X16	Y16	Z16	X17	Y17	Z17	X18	Y18	Z18	X19	Y19	Z19	X20	Y20	Z20	X21	Y21	Z21	X22	Y22	Z22	X23	Y23	Z23	X24	Y24	Z24	X25	Y25	Z25	X26	Y26	Z26	X27	Y27	Z27	X28	Y28	Z28	X29	Y29	Z29	X30	Y30	Z30	X31	Y31	Z31	X32	Y32	Z32	X33	Y33	Z33	X34	Y34	Z34	X35	Y35	Z35	X36	Y36	Z36	X37	Y37	Z37	X38	Y38	Z38	X39	Y39	Z39	X40	Y40	Z40	X41	Y41	Z41	X42	Y42	Z42	X43	Y43	Z43	X44	Y44	Z44	X45	Y45	Z45	X46	Y46	Z46	X47	Y47	Z47	X48	Y48	Z48	X49	Y49	Z49	X50	Y50	Z50	X51	Y51	Z51	X52	Y52	Z52	X53	Y53	Z53	

241	2.4	-10.73040866851807	952.6055908203125	91.80750274658203	23.45334434509277	973.11376953125	-33.49164199829102	25.71352577209473	1065.384521484375	23.80704689025879	265.5986328125	1220.917358398438	121.2040939331055	38.58779525756836	1188.049560546875	22.32425308227539	106.2486190795898	1452.215942382812	77.37353515625	258.4465942382812	1332.830688476562	131.130126953125	-3.011417150497437	1335.940307617188	114.4694290161133	103.8530120849609	1414.831665039062	-28.37837600708008	231.4554901123047	1436.409545898438	-47.50924301147461	274.7508544921875	1332.23681640625	-138.5307159423828	344.4491882324219	1153.026123046875	-173.2926635742188	268.7955017089844	1087.36865234375	-196.2720031738281	446.5806274414062	1117.6669921875	46.143798828125	505.8462524414062	1065.08203125	9.14307975769043	399.5337829589844	1124.732299804688	-120.7438507080078	545.8316650390625	1069.241821289062	169.37939453125	538.0609130859375	1059.066162109375	59.00479507446289	510.8150024414062	1113.50048828125	90.86379241943359	94.11135864257812	1408.545532226562	236.6202850341797	32.49610137939453	1361.039916992188	284.0937805175781	-99.82109832763672	1106.686889648438	304.6565856933594	-146.2559967041016	1103.752197265625	260.6480712890625	30.68185615539551	889.9391479492188	302.8009948730469	-40.32669067382812	860.6744384765625	332.6381225585938	-100.0782852172852	1049.498291015625	309.65869140625	60.36023712158203	728.24365234375	318.9190673828125	58.14313507080078	809.19580078125	341.9703979492188	-15.33680438995361	793.8639526367188	350.0636596679688	192.3428039550781	1615.832763671875	191.3536987304688	375.2858581542969	1604.188720703125	93.59172058105469	326.7454528808594	1600.046264648438	229.8209838867188	254.0955352783203	1616.894287109375	37.96146774291992	162.8866577148438	895.5944213867188	-141.3800964355469	88.92730712890625	882.7763671875	230.1273651123047	181.4043273925781	908.5322875976562	190.8088226318359	236.4451293945312	909.6898803710938	-77.72499847412109	89.84780120849609	443.5420837402344	-95.43719482421875	132.1754150390625	613.3782348632812	-123.9657211303711	-273.3576354980469	107.7905426025391	-155.7225189208984	-111.9188079833984	277.061279296875	-135.1426239013672	-124.7142868041992	34.54299545288086	-40.24026489257812	-187.72705078125	59.2972297668457	-27.76629447937012	-177.5435333251953	41.85646820068359	-131.7379455566406	-336.0479431152344	159.5719757080078	-124.778076171875	328.4753112792969	522.1209106445312	291.8915100097656	167.3349456787109	766.9236450195312	259.8038635253906	443.65771484375	28.25734710693359	263.8482971191406	392.917236328125	386.6270751953125	295.3263244628906	642.505615234375	92.07019805908203	321.1162109375	604.4947509765625	95.299072265625	257.7219848632812	556.1539306640625	39.53989410400391	330.888427734375	414.6859436035156	34.99424743652344	191.1231536865234	
242	2.41	12.53161144256592	952.7521362304688	100.5341949462891	46.78127670288086	973.9212036132812	-24.54255867004395	48.29715347290039	1065.61083984375	32.4748420715332	286.6342468261719	1222.694946289062	128.9007263183594	60.03025054931641	1188.072509765625	30.22444152832031	125.7807922363281	1452.532958984375	84.39183044433594	278.5628662109375	1334.53466796875	138.4858551025391	17.44076919555664	1336.02294921875	121.6879425048828	123.2280883789062	1415.113647460938	-21.17441749572754	250.6213073730469	1437.116455078125	-40.37710189819336	293.6727294921875	1332.797607421875	-131.3749542236328	362.4676513671875	1153.175415039062	-165.2056274414062	286.6228332519531	1087.901611328125	-188.4950561523438	460.7484436035156	1119.348022460938	56.38903045654297	520.845458984375	1066.959106445312	20.5228328704834	416.3138732910156	1125.421020507812	-111.4975280761719	557.8052368164062	1071.479248046875	181.7346954345703	552.2254638671875	1061.121459960938	70.97283172607422	524.1414794921875	1115.41015625	102.3727340698242	113.8064117431641	1409.524169921875	243.5756225585938	52.10478591918945	1362.487182617188	290.9083557128906	-81.35807800292969	1108.284790039062	309.9897155761719	-127.12255859375	1105.574829101562	265.1302795410156	47.24540710449219	889.6998291015625	311.9817199707031	-24.91866302490234	861.3533935546875	340.2222595214844	-82.34806060791016	1051.113525390625	315.2810974121094	73.71968841552734	727.1098022460938	327.7123718261719	72.67523956298828	808.1187133789062	351.4684753417969	-1.315534472465515	794.005126953125	357.8587646484375	210.441162109375	1616.576171875	198.3446197509766	393.3847045898438	1605.8984375	100.5545501708984	344.8848266601562	1601.469604492188	236.7350769042969	272.1592712402344	1618.0048828125	44.93023681640625	185.9745788574219	897.0078125	-133.1553039550781	112.5077209472656	882.4609985351562	238.1814422607422	204.7704620361328	909.395263671875	199.0786743164062	259.2846374511719	910.788330078125	-69.28292846679688	111.4466781616211	444.014892578125	-90.20733642578125	154.2738494873047	614.4462890625	-117.3094100952148	-262.0964050292969	119.8694763183594	-156.26025390625	-94.32518768310547	283.6637878417969	-132.7794799804688	-122.829475402832	33.72596740722656	-40.53586959838867	-182.8303833007812	63.21950912475586	-28.33310508728027	-172.2536163330078	45.89965438842773	-132.1043090820312	-320.7209777832031	175.7547302246094	-125.1222991943359	350.1787109375	519.0718994140625	297.2905883789062	190.1884002685547	764.4834594726562	267.9552612304688	470.9535522460938	28.23606300354004	266.5504760742188	416.1158447265625	384.648681640625	300.2962951660156	671.0507202148438	88.20583343505859	326.0167236328125	632.4761962890625	94.13556671142578	262.6477966308594	583.4224853515625	38.02900695800781	334.2554931640625	442.7589111328125	35.89979934692383	193.8237915039062	
243	2.42	35.40950393676758	952.0126953125	109.0125503540039	69.70955657958984	973.822265625	-15.91018390655518	70.50544738769531	1065.086181640625	41.09412384033203	307.6588134765625	1223.584228515625	136.5104217529297	81.19097900390625	1187.379760742188	38.28876495361328	145.3951568603516	1452.10009765625	91.51393127441406	298.7900390625	1335.364379882812	145.7732086181641	37.9152717590332	1335.3193359375	129.2170257568359	142.6478271484375	1414.55322265625	-13.8903284072876	269.8369140625	1436.903564453125	-33.36975479125977	312.35888671875	1332.33056640625	-124.423583984375	379.9659729003906	1152.213500976562	-157.5437927246094	303.7855529785156	1087.43359375	-180.9765319824219	474.8674621582031	1119.764892578125	65.92538452148438	535.6157836914062	1067.515502929688	31.05555725097656	432.630859375	1124.936889648438	-102.8178787231445	569.7553100585938	1072.009887695312	193.1713409423828	566.2249145507812	1061.6962890625	82.03109741210938	537.4717407226562	1115.839721679688	113.1089096069336	133.7760162353516	1409.670288085938	250.6838836669922	72.12966918945312	1362.963134765625	297.984375	-61.96725463867188	1108.6728515625	315.9611206054688	-107.1521453857422	1106.086181640625	270.3749694824219	64.97185516357422	888.527099609375	321.2099304199219	-8.141632080078125	861.0150146484375	348.1649169921875	-63.56229400634766	1051.515258789062	321.5110778808594	88.74245452880859	725.275390625	336.7926940917969	88.68096923828125	806.4048461914062	361.1414489746094	14.30862808227539	793.25830078125	366.0509948730469	228.6537170410156	1616.539794921875	205.2379302978516	411.6035461425781	1606.917236328125	107.4592590332031	363.1744384765625	1602.258544921875	243.6009216308594	290.3463134765625	1618.3095703125	51.82947158813477	209.0837097167969	897.5067749023438	-124.9641265869141	135.5951843261719	881.4400634765625	246.1997375488281	227.7364044189453	909.6205444335938	207.4350738525391	281.8516845703125	911.14453125	-60.73300933837891	135.7060852050781	443.0769958496094	-83.96406555175781	178.061767578125	614.2940673828125	-109.8882064819336	-248.6761627197266	132.8622589111328	-156.5318603515625	-74.22095489501953	289.6787414550781	-129.7597045898438	-119.4391326904297	32.95047760009766	-41.22269821166992	-176.3192443847656	67.82113647460938	-29.12605667114258	-165.2870941162109	51.21846389770508	-132.7960205078125	-303.0946960449219	192.3583374023438	-125.0251007080078	372.4783020019531	516.2305297851562	302.7336120605469	212.9678802490234	761.9119262695312	276.2626342773438	491.8704223632812	28.51341819763184	267.0277404785156	438.6485290527344	382.0569458007812	304.58154296875	694.1058349609375	82.48806762695312	328.66064453125	655.0751342773438	90.39534759521484	265.166015625	603.9786987304688	36.96456527709961	336.1141357421875	464.8685913085938	35.95796203613281	194.1788177490234	
244	2.43	57.78043365478516	950.3596801757812	117.1660079956055	92.10317993164062	972.6854248046875	-7.697585582733154	92.25126647949219	1063.763427734375	49.56847763061523	328.6221313476562	1223.518188476562	143.9744567871094	102.0046920776367	1185.954467773438	46.44661331176758	165.0642395019531	1450.92333984375	98.72579956054688	319.09521484375	1335.257446289062	152.9608764648438	58.36246871948242	1333.802001953125	137.0163116455078	162.1015319824219	1413.171142578125	-6.564915180206299	289.1213684082031	1435.76806640625	-26.50462913513184	330.8690795898438	1330.816284179688	-117.6587600708008	396.9988403320312	1150.122924804688	-150.2869567871094	320.3287658691406	1085.947631835938	-173.6922149658203	489.0650634765625	1118.844116210938	74.75299835205078	550.2393798828125	1066.595703125	40.71925735473633	448.5700378417969	1123.21484375	-94.69191741943359	581.8900146484375	1070.817626953125	203.6580047607422	580.157958984375	1060.656616210938	92.15982055664062	550.9638671875	1114.70751953125	123.0178680419922	153.9937438964844	1408.913208007812	257.9468078613281	92.54833984375	1362.358032226562	305.3420104980469	-41.68862533569336	1107.776245117188	322.6334838867188	-86.40965270996094	1105.217163085938	276.4739990234375	83.902099609375	886.4244995117188	330.4674072265625	10.08246517181396	859.6182861328125	356.5032043457031	-43.73624038696289	1050.6318359375	328.4052734375	105.5736312866211	722.7402954101562	346.2292175292969	106.2794418334961	804.0510864257812	370.949462890625	31.64933586120605	791.5968627929688	374.6893005371094	247.0080108642578	1615.721801757812	212.0203552246094	429.9805603027344	1607.241088867188	114.2850723266602	381.6315612792969	1602.404907226562	250.3971862792969	308.6873168945312	1617.79541015625	58.64269256591797	232.0842742919922	896.9439697265625	-116.8372116088867	158.0851593017578	879.7745361328125	254.1443786621094	250.1899108886719	909.190673828125	215.829833984375	304.0566101074219	910.6683959960938	-52.14822006225586	162.5100402832031	440.7264709472656	-76.75916290283203	203.4123382568359	612.8527221679688	-101.760627746582	-232.8697204589844	146.6551361083984	-156.3600158691406	-51.61835098266602	295.0587768554688	-125.9997634887695	-113.8941345214844	32.46643829345703	-42.52588653564453	-167.6367950439453	73.09089660644531	-30.18949127197266	-156.1900024414062	57.93153762817383	-133.8090972900391	-283.125244140625	209.1087341308594	-124.1667251586914	395.3304138183594	513.6483764648438	308.2098388671875	235.6627655029297	759.3765258789062	284.6523132324219	506.9800415039062	29.1198673248291	265.6853332519531	460.5927124023438	378.9313354492188	308.2253723144531	712.03662109375	75.42780303955078	329.1028747558594	672.6640625	84.35709381103516	265.3069458007812	618.505615234375	36.44952774047852	336.6841735839844	481.3758239746094	35.06966781616211	192.6269989013672	
